<?xml version="1.0" encoding="UTF-8"?>
<svg width="100" height="100" viewBox="0 0 100 100" fill="none" xmlns="http://www.w3.org/2000/svg">
    <!-- Background Circle -->
    <circle cx="50" cy="50" r="45" fill="#3B82F6" opacity="0.1"/>
    
    <!-- Main Logo Elements -->
    <g transform="translate(25, 25)">
        <!-- Book/Document Shape -->
        <path d="M25 0H45C47.7614 0 50 2.23858 50 5V40C50 42.7614 47.7614 45 45 45H25C22.2386 45 20 42.7614 20 40V5C20 2.23858 22.2386 0 25 0Z" 
              fill="#3B82F6"/>
        
        <!-- Document Lines -->
        <rect x="22.5" y="10" width="25" height="2" rx="1" fill="white"/>
        <rect x="22.5" y="15" width="20" height="2" rx="1" fill="white"/>
        <rect x="22.5" y="20" width="22.5" height="2" rx="1" fill="white"/>
        <rect x="22.5" y="25" width="17.5" height="2" rx="1" fill="white"/>
        
        <!-- Collaboration Dots -->
        <circle cx="15" cy="35" r="4" fill="#3B82F6"/>
        <circle cx="35" cy="35" r="4" fill="#3B82F6"/>
        
        <!-- Connection Line -->
        <path d="M19 35L31 35" stroke="#3B82F6" stroke-width="1.5" stroke-linecap="round"/>
    </g>
</svg> 